# xmcd
#
# Track frame offsets:
#	150
#	15259
#	29522
#	43633
#	57782
#	72633
#	85318
#	101869
#	116131
#	131740
#	145943
#	162538
#
# Disc length: 2354 seconds
#
# Revision: 2
# Processed by: cddbd v1.5.2PL0 Copyright (c) Steve Scherf et al.
# Submitted via: EZCDAudioConverter 2.2.2.1
#
DISCID=ae09300c
DTITLE=Victor and Leo - Borboletas
DYEAR=2008
DGENRE=Country
TTITLE0=Borboletas
TTITLE1=Lado Errado
TTITLE2=Timidez
TTITLE3=Tanta Solidão
TTITLE4=Nada Normal
TTITLE5=Sem Trânsito, Sem Avião
TTITLE6=Luz, Paixão, Rodeio
TTITLE7=Noite Estelar
TTITLE8=Razão Do Meu Astral
TTITLE9=Você Sabia
TTITLE10=Deus E Eu No Sertão
TTITLE11=Tem Que Ser Você (Bônus Track)
EXTD=
EXTT0=
EXTT1=
EXTT2=
EXTT3=
EXTT4=
EXTT5=
EXTT6=
EXTT7=
EXTT8=
EXTT9=
EXTT10=
EXTT11=
PLAYORDER=
